<svg xmlns="http://www.w3.org/2000/svg" viewBox="0 0 800 280">
  <defs>
    <style>
      .text-pixel { fill: #22C55E; }
      .studio-text { font-family: 'Inter', sans-serif; font-weight: 800; font-size: 26px; fill: #2196F3; letter-spacing: 12px; text-transform: uppercase; }
    </style>
  </defs>

  <g transform="translate(400, 140)">
    <g transform="translate(0, -10)">
        <path d="M 0,0 h1 v1 h-1 Z M 4,0 h1 v1 h-1 Z M 0,1 h1 v1 h-1 Z M 4,1 h1 v1 h-1 Z M 0,2 h1 v1 h-1 Z M 4,2 h1 v1 h-1 Z M 1,3 h1 v1 h-1 Z M 3,3 h1 v1 h-1 Z M 2,4 h1 v1 h-1 Z M 7,0 h1 v1 h-1 Z M 7,1 h1 v1 h-1 Z M 7,2 h1 v1 h-1 Z M 7,3 h1 v1 h-1 Z M 7,4 h1 v1 h-1 Z M 10,0 h1 v1 h-1 Z M 11,0 h1 v1 h-1 Z M 12,0 h1 v1 h-1 Z M 13,0 h1 v1 h-1 Z M 10,1 h1 v1 h-1 Z M 14,1 h1 v1 h-1 Z M 10,2 h1 v1 h-1 Z M 11,2 h1 v1 h-1 Z M 12,2 h1 v1 h-1 Z M 13,2 h1 v1 h-1 Z M 10,3 h1 v1 h-1 Z M 14,3 h1 v1 h-1 Z M 10,4 h1 v1 h-1 Z M 11,4 h1 v1 h-1 Z M 12,4 h1 v1 h-1 Z M 13,4 h1 v1 h-1 Z M 17,0 h1 v1 h-1 Z M 18,0 h1 v1 h-1 Z M 19,0 h1 v1 h-1 Z M 20,0 h1 v1 h-1 Z M 21,0 h1 v1 h-1 M 17,1 h1 v1 h-1 Z M 17,2 h1 v1 h-1 Z M 18,2 h1 v1 h-1 Z M 19,2 h1 v1 h-1 Z M 20,2 h1 v1 h-1 Z M 17,3 h1 v1 h-1 Z M 17,4 h1 v1 h-1 Z M 18,4 h1 v1 h-1 Z M 19,4 h1 v1 h-1 Z M 20,4 h1 v1 h-1 Z M 21,4 h1 v1 h-1 M 25,0 h1 v1 h-1 Z M 26,0 h1 v1 h-1 Z M 27,0 h1 v1 h-1 Z M 28,0 h1 v1 h-1 Z M 24,1 h1 v1 h-1 Z M 24,2 h1 v1 h-1 Z M 24,3 h1 v1 h-1 Z M 25,4 h1 v1 h-1 Z M 26,4 h1 v1 h-1 Z M 27,4 h1 v1 h-1 Z M 28,4 h1 v1 h-1 Z M 31,0 h1 v1 h-1 Z M 32,0 h1 v1 h-1 Z M 33,0 h1 v1 h-1 Z M 34,0 h1 v1 h-1 Z M 31,1 h1 v1 h-1 Z M 35,1 h1 v1 h-1 Z M 31,2 h1 v1 h-1 Z M 32,2 h1 v1 h-1 Z M 33,2 h1 v1 h-1 Z M 34,2 h1 v1 h-1 Z M 31,3 h1 v1 h-1 Z M 34,3 h1 v1 h-1 Z M 31,4 h1 v1 h-1 Z M 35,4 h1 v1 h-1 Z M 39,0 h1 v1 h-1 Z M 40,0 h1 v1 h-1 Z M 41,0 h1 v1 h-1 Z M 38,1 h1 v1 h-1 Z M 42,1 h1 v1 h-1 Z M 38,2 h1 v1 h-1 Z M 39,2 h1 v1 h-1 Z M 40,2 h1 v1 h-1 Z M 41,2 h1 v1 h-1 Z M 42,2 h1 v1 h-1 Z M 38,3 h1 v1 h-1 Z M 42,3 h1 v1 h-1 Z M 38,4 h1 v1 h-1 Z M 42,4 h1 v1 h-1 Z M 45,0 h1 v1 h-1 Z M 46,0 h1 v1 h-1 Z M 47,0 h1 v1 h-1 Z M 48,0 h1 v1 h-1 Z M 49,0 h1 v1 h-1 Z M 45,1 h1 v1 h-1 Z M 45,2 h1 v1 h-1 Z M 46,2 h1 v1 h-1 Z M 47,2 h1 v1 h-1 Z M 48,2 h1 v1 h-1 Z M 45,3 h1 v1 h-1 Z M 45,4 h1 v1 h-1 Z M 52,0 h1 v1 h-1 Z M 53,0 h1 v1 h-1 Z M 54,0 h1 v1 h-1 Z M 55,0 h1 v1 h-1 Z M 56,0 h1 v1 h-1 Z M 54,1 h1 v1 h-1 Z M 54,2 h1 v1 h-1 Z M 54,3 h1 v1 h-1 Z M 54,4 h1 v1 h-1 Z" transform="scale(9.5) translate(-28.5, -2.5)" class="text-pixel" />
    </g>
    <text x="0" y="65" text-anchor="middle" class="studio-text">STUDIO</text>
  </g>
</svg>
